<mxfile host="65bd71144e">
    <diagram id="_slO6afsdPsSFLIxzm2f" name="Page-1">
        <mxGraphModel dx="-1158" dy="380" grid="1" gridSize="10" guides="1" tooltips="1" connect="1" arrows="1" fold="1" page="1" pageScale="1" pageWidth="850" pageHeight="1100" math="0" shadow="0">
            <root>
                <mxCell id="0"/>
                <mxCell id="1" parent="0"/>
                <mxCell id="2" value="&lt;font size=&quot;1&quot; color=&quot;#00ff80&quot; style=&quot;&quot;&gt;&lt;b style=&quot;font-size: 60px;&quot;&gt;Clean Architecture&lt;/b&gt;&lt;/font&gt;" style="text;html=1;align=center;verticalAlign=middle;resizable=0;points=[];autosize=1;strokeColor=none;fillColor=none;" vertex="1" parent="1">
                    <mxGeometry x="1850" y="50" width="550" height="90" as="geometry"/>
                </mxCell>
                <mxCell id="8" style="edgeStyle=none;html=1;entryX=0.208;entryY=0;entryDx=0;entryDy=0;entryPerimeter=0;strokeWidth=2;" edge="1" parent="1" source="3" target="5">
                    <mxGeometry relative="1" as="geometry"/>
                </mxCell>
                <mxCell id="3" value="&lt;pre style=&quot;&quot;&gt;&lt;span style=&quot;font-size: 18px;&quot;&gt;Presentation&lt;/span&gt;&lt;/pre&gt;" style="html=1;labelBackgroundColor=none;horizontal=1;verticalAlign=middle;labelBorderColor=none;whiteSpace=wrap;fillColor=#6a00ff;fontColor=#ffffff;strokeColor=#3700CC;" vertex="1" parent="1">
                    <mxGeometry x="1830" y="258" width="220" height="60" as="geometry"/>
                </mxCell>
                <mxCell id="9" style="edgeStyle=none;html=1;entryX=0.792;entryY=0;entryDx=0;entryDy=0;entryPerimeter=0;strokeWidth=2;" edge="1" parent="1" source="4" target="5">
                    <mxGeometry relative="1" as="geometry"/>
                </mxCell>
                <mxCell id="4" value="&lt;pre style=&quot;&quot;&gt;&lt;span style=&quot;font-size: 18px;&quot;&gt;Infrastructure&lt;/span&gt;&lt;/pre&gt;" style="html=1;labelBackgroundColor=none;horizontal=1;verticalAlign=middle;labelBorderColor=none;whiteSpace=wrap;fillColor=#60a917;fontColor=#ffffff;strokeColor=#2D7600;" vertex="1" parent="1">
                    <mxGeometry x="2140" y="259" width="220" height="60" as="geometry"/>
                </mxCell>
                <mxCell id="10" style="edgeStyle=none;html=1;entryX=0.5;entryY=0;entryDx=0;entryDy=0;strokeWidth=2;" edge="1" parent="1" source="5" target="6">
                    <mxGeometry relative="1" as="geometry"/>
                </mxCell>
                <mxCell id="5" value="&lt;pre style=&quot;&quot;&gt;&lt;span style=&quot;font-size: 18px;&quot;&gt;Application&lt;/span&gt;&lt;/pre&gt;" style="html=1;labelBackgroundColor=none;horizontal=1;verticalAlign=middle;labelBorderColor=none;whiteSpace=wrap;fillColor=#d80073;fontColor=#ffffff;strokeColor=#A50040;" vertex="1" parent="1">
                    <mxGeometry x="1830" y="359" width="530" height="60" as="geometry"/>
                </mxCell>
                <mxCell id="6" value="&lt;pre style=&quot;&quot;&gt;&lt;span style=&quot;font-size: 18px;&quot;&gt;Domain&lt;/span&gt;&lt;/pre&gt;" style="html=1;labelBackgroundColor=none;horizontal=1;verticalAlign=middle;labelBorderColor=none;whiteSpace=wrap;fillColor=#a20025;fontColor=#ffffff;strokeColor=#6F0000;" vertex="1" parent="1">
                    <mxGeometry x="1830" y="461" width="530" height="60" as="geometry"/>
                </mxCell>
            </root>
        </mxGraphModel>
    </diagram>
</mxfile>